# xmcd
#
# Track frame offsets: 
#        150
#        32737
#        61697
#        79010
#        106497
#        134625
#
# Disc length: 2097 seconds
#
# Revision: 0
# Processed by: cddbd v1.5.2PL0 Copyright (c) Steve Scherf et al.
# Submitted via: ExactAudioCopy v0.99pb4
#
DISCID=49082f06
DTITLE=Disco Circus - Disco Circus
DYEAR=1992
DGENRE=Disco
TTITLE0=In A Gadda Da Vida - Garden Of Eden
TTITLE1=Dig It
TTITLE2=Soul Sister
TTITLE3=Over And Over
TTITLE4=Get Up And Dance
TTITLE5=The Mexican
EXTD=
EXTT0=
EXTT1=
EXTT2=
EXTT3=
EXTT4=
EXTT5=
PLAYORDER=
